<?xml version="1.0" encoding="utf-8"?>
<!-- Generator: Adobe Illustrator 19.1.0, SVG Export Plug-In . SVG Version: 6.00 Build 0)  -->
<svg version="1.1" id="Capa_1" xmlns="http://www.w3.org/2000/svg" xmlns:xlink="http://www.w3.org/1999/xlink" x="0px" y="0px"
	 viewBox="172 -50.6 940.5 940.5" style="enable-background:new 172 -50.6 940.5 940.5;" xml:space="preserve">
<style type="text/css">
	.st0{fill:#234A4B;}
</style>
<g>
	<g>
		<path class="st0" d="M292.3,880.3c14.2,14.2,38.8,12.5,55.1-3.8l172.1-172.1l125.1,125.1c16.3,16.3,42.6,16.3,58.9,0l48.8-48.8
			c16.3-16.3,16.3-42.6,0-58.9L340,309.7c-16.3-16.3-42.6-16.3-58.9,0l-48.8,48.8c-16.3,16.3-16.3,42.6,0,58.9l125.1,125.1
			L185.4,714.5c-16.3,16.3-18,40.9-3.8,55.1L292.3,880.3z M276.6,724.3c16.9-16.9,44.2-16.9,61.1,0c16.9,16.9,16.9,44.2,0,61.1
			c-16.9,16.9-44.2,16.9-61.1,0C259.7,768.5,259.7,741.1,276.6,724.3z"/>
		<path class="st0" d="M354.9,257.5c0.1,0.6,0.2,1.2,0.3,1.8c0.1,0.7,0.3,1.5,0.5,2.2c1.6,6.4,4.9,12.5,10,17.5L470,383.3l313,313
			c2.8,2.8,5.9,5.1,9.2,6.8c1.1,0.6,2.2,1.1,3.4,1.6c1.7,0.7,3.5,1.3,5.3,1.7c1.3,0.3,2.5,0.5,3.8,0.7c1.1,0.1,2.1,0.2,3.2,0.3
			c0.1,0,0.2,0,0.3,0c0.6,0,1.2,0,1.7,0c0,0,0,0,0.1,0c0.8,0,1.6,0,2.4-0.1c0.2,0,0.4,0,0.6,0c0.8-0.1,1.6-0.1,2.4-0.3
			c3-0.4,6-1.2,8.9-2.4c1.1-0.5,2.3-1,3.4-1.6c0.6-0.3,1.1-0.6,1.6-0.9c2-1.2,4-2.6,5.8-4.2c0.6-0.5,1.2-1.1,1.8-1.7l122.3-122.3
			l122.3-122.3l19.9-19.9c0.6-0.6,1.2-1.2,1.7-1.8c3.9-4.4,6.5-9.5,8-14.8c3.6-12.8,0.3-27.1-9.7-37.2l-4.8-4.8L720.1-3.3L684-39.4
			c-0.9-0.9-1.9-1.8-2.9-2.6c-1-0.8-2-1.6-3.1-2.3c-1.6-1-3.2-2-4.9-2.7c-1.1-0.5-2.3-1-3.4-1.4c-1.2-0.4-2.3-0.8-3.5-1
			c-1.8-0.4-3.6-0.7-5.4-0.9c-0.6-0.1-1.1-0.1-1.7-0.1c-0.2,0-0.4,0-0.6,0c-0.4,0-0.8,0-1.2,0c-0.1,0-0.1,0-0.2,0
			c-0.1,0-0.2,0-0.3,0c-0.5,0-1.1,0-1.6,0c-0.2,0-0.3,0-0.5,0c-0.7,0-1.3,0.1-2,0.2c-0.1,0-0.2,0-0.4,0c-0.6,0.1-1.1,0.2-1.7,0.3
			c-0.2,0-0.4,0.1-0.5,0.1c-0.7,0.1-1.3,0.3-2,0.4c-0.4,0.1-0.9,0.2-1.3,0.4c-6.1,1.7-11.8,4.9-16.6,9.7l-4.7,4.7L365.6,225.1
			c-3.6,3.6-6.3,7.7-8.1,12.1c-0.2,0.4-0.3,0.8-0.5,1.2c-0.5,1.4-1,2.7-1.3,4.1c-0.4,1.4-0.6,2.8-0.9,4.3c-0.2,1.1-0.3,2.3-0.3,3.4
			c0,0.6,0,1.2,0,1.8c0,0.6,0,1.2,0,1.8C354.6,255.1,354.7,256.3,354.9,257.5z M651.4-18.2c2-2,4.2-2.4,5.7-2.4s3.8,0.4,5.7,2.4
			l417.3,417.3c2,2,2.4,4.2,2.4,5.7c0,1.5-0.4,3.8-2.4,5.7l-35.8,35.8c-22.3-2.6-45-2.2-66.3,4.6c-17.2,5.4-30.7,15.4-44.1,27
			c-14.2,12.3-29.7,25.3-48.9,28.5c-16.2,2.8-35,0.7-46.5-12.5c-12-13.8-15.9-32.9-11.3-50.6c4.7-18.1,15.4-33.3,26.2-48.2
			c11.2-15.5,22.9-30.8,32.3-47.5c9.1-16.1,29.6-47.1,18.2-65.9c-12-19.7-41.8-11.3-58-2.3c-33.2,18.7-57,48.9-79.8,78.8
			c-6.5,8.5-12.8,17.1-19.6,25.3c-6.1,7.5-13.2,14.3-22.5,17.5c-19,6.6-37.3-5-39.8-24.7c-2.5-19.4,12.4-34.2,25.2-46.5
			c14.4-13.8,29.7-26.7,44-40.6c13.5-13.2,26.9-27.3,36-44c3.1-5.7,6.1-12.4,7.2-19.2c-27.1,0.6-54.3,1.2-79.9-9.1
			c-16.4-6.6-31.2-17.4-40-33c-7.7-13.6-10.9-29-11.2-44.5c-0.6-31,7.7-61.7,1.9-92.6c-3.9-20.9-11.7-40.5-23.1-58L651.4-18.2z"/>
	</g>
</g>
</svg>
