<?xml version="1.0" encoding="utf-8"?>
<!-- Generator: Adobe Illustrator 19.1.0, SVG Export Plug-In . SVG Version: 6.00 Build 0)  -->
<svg version="1.1" id="Capa_1" xmlns="http://www.w3.org/2000/svg" xmlns:xlink="http://www.w3.org/1999/xlink" x="0px" y="0px"
	 viewBox="180 -58 956.9 956.9" style="enable-background:new 180 -58 956.9 956.9;" xml:space="preserve">
<style type="text/css">
	.st0{fill:#234A4B;}
</style>
<g>
	<g>
		<path class="st0" d="M218.9,628.8c27.4,6.8,55.1-10,61.8-37.3c3.3-13.2,1.1-26.4-5.1-37.4l75.5-45.6c6.4,25.8,12.9,51.7,19.3,77.5
			c19.8,79.3,40.1,158.5,59,238c2.5,10.5,8.1,23.4,20.7,23.4c9.7,0,17.1-8,18.1-17.4c1.1-10.3-13.1-127.2-15.8-157.8
			c-0.4-4.7,4.7-7.9,8.7-5.5c23.3,13.9,46.8,27.4,70.4,40.7c25.4,14.3,50.9,28.5,76.6,42.4c9.5,5.1,18.9,10.2,28.4,15.2
			c9.4,5,22.2,13.9,31.4,4.1c5.7-6,6.4-17.6-0.6-23.1C640,724.7,442.9,563.5,442.9,563.5c-1.2-14.4-2.4-28.9-3.5-43.3l52.5-31.7
			l-90.6-150.1L335.6,378c-12.2,7.4-14.7,9.5-12.2,19.9c4.7,18.7,9.3,37.4,14,56.1c0.2,0.9-14.8,8.9-15.8,9.5
			c-12.4,7.5-24.9,15-37.3,22.5c-18.7,11.3-37.4,22.6-56.1,33.9c-19.4,11.7-40.8,23.1-46.7,47C174.7,594.4,191.5,622.1,218.9,628.8z
			"/>
		<path class="st0" d="M1126.8-6.5L927.2,38.6l74.8,123.8L1134.9,6.8C1139.8-0.3,1135.4-7.5,1126.8-6.5z"/>
		<path class="st0" d="M1000.3,208.1l-15.5-25.6L901.5,44.4L886,18.8c-2.8-4.7-7.8-7.3-13-7.3c-2.7,0-5.4,0.7-7.8,2.2L415.9,285.1
			c-7.2,4.3-9.5,13.6-5.1,20.8l11.8,19.6l90.6,150.1l11.8,19.6c2.8,4.7,7.8,7.3,13,7.3c2.7,0,5.4-0.7,7.8-2.2l449.3-271.4
			C1002.4,224.6,1004.7,215.3,1000.3,208.1z"/>
	</g>
</g>
</svg>
