<?xml version="1.0" encoding="utf-8"?>
<!-- Generator: Adobe Illustrator 19.1.0, SVG Export Plug-In . SVG Version: 6.00 Build 0)  -->
<svg version="1.1" id="Capa_1" xmlns="http://www.w3.org/2000/svg" xmlns:xlink="http://www.w3.org/1999/xlink" x="0px" y="0px"
	 viewBox="167 -44.7 929.5 929.5" style="enable-background:new 167 -44.7 929.5 929.5;" xml:space="preserve">
<style type="text/css">
	.st0{fill:#234A4B;}
</style>
<g>
	<g>
		<path class="st0" d="M320,878.2l295.7-326.3L508.6,444.7C354.7,584.2,191.4,732.2,182.6,740.2c-0.3,0.2-0.5,0.5-0.7,0.7
			c-9.7,10.2-8.1,27.9,3.8,39.8l94.1,94.1C291.8,886.8,309.8,888.3,320,878.2z"/>
		<path class="st0" d="M862.8,279.2c0.2-0.2,0.4-0.5,0.7-0.7c26-25.3,66.2-22.9,95.6-42.5c23.2-15.5,37-49.8,51.2-73.1
			c23.1-38,46.2-75.9,69.3-113.9c3.2-5.3,2.4-12.1-2-16.5L1028-17.1c-4.4-4.4-11.2-5.2-16.5-2c-39.4,24-78.9,48-118.3,72
			c-24.8,15.1-53.9,27.8-71,52.4c-19.6,28.2-15.1,66.1-40.6,92c0,0-49,44.4-119,107.8l92.7,92.7L862.8,279.2z"/>
		<path class="st0" d="M738.5,416.4l-94.4-94.4L541,218.8c1.7-4.4,3.1-8.8,4.5-13.2c1.4-4.6,2.6-9.3,3.6-14
			C562.9,129,545.5,60.7,497,12.2c-58.8-58.8-145.9-72-217.4-39.6c-11.9,5.4-14.7,21-5.5,30.2L394.4,123c14.6,14.6,14.6,38.3,0,53
			L274,296.4c-9.2,9.2-6.3,24.7,5.5,30c38.8,17.6,82.2,21.8,123.2,12.5c4.7-1.1,9.4-2.3,14-3.7c4.4-1.4,8.8-2.9,13.1-4.5l97.3,97.3
			l105.4,105.4l339.2,339.2c4.9,4.9,11.3,7.3,17.7,7.3c6.4,0,12.8-2.4,17.7-7.3l76.2-76.2c9.8-9.8,9.8-25.6,0-35.3L738.5,416.4z
			 M984.5,807.4c-17.7,0-32-14.3-32-32s14.3-32,32-32c17.7,0,32,14.3,32,32S1002.2,807.4,984.5,807.4z"/>
		<path class="st0" d="M247.6,264.6l79.6-79.6c8.3-8.3,8.3-21.6,0-29.9l-112-112c-5.9-5.9-16-4.4-19.8,3.1
			c-35.7,68.9-28.7,154.2,20.8,216.7C224,272.8,238.7,273.5,247.6,264.6z"/>
	</g>
</g>
</svg>
